<svg width="513" height="513" viewBox="0 0 513 513" fill="none" xmlns="http://www.w3.org/2000/svg">
<path fill-rule="evenodd" clip-rule="evenodd" d="M230.891 46.7954C129.494 46.7954 47.2954 128.994 47.2954 230.391C47.2954 331.789 129.494 413.987 230.891 413.987C280.422 413.987 325.372 394.373 358.397 362.489C359.042 361.635 359.754 360.815 360.533 360.036C361.311 359.258 362.132 358.546 362.986 357.9C394.872 324.875 414.487 279.924 414.487 230.391C414.487 128.994 332.289 46.7954 230.891 46.7954ZM409.252 375.842C441.62 336.198 461.033 285.562 461.033 230.391C461.033 103.288 357.995 0.25 230.891 0.25C103.788 0.25 0.75 103.288 0.75 230.391C0.75 357.495 103.788 460.533 230.891 460.533C286.06 460.533 336.695 441.121 376.339 408.755L473.018 505.434C482.106 514.522 496.842 514.522 505.93 505.434C515.019 496.345 515.019 481.61 505.93 472.521L409.252 375.842Z" fill="#1A1A1A"/>
</svg>
