<svg width="512" height="512" viewBox="0 0 512 512" xmlns="http://www.w3.org/2000/svg">
    <path fill-rule="evenodd" clip-rule="evenodd" d="M256 40.8344C209.45 40.8344 171.714 78.5707 171.714 125.121V183.231H340.286V125.121C340.286 78.5706 302.55 40.8344 256 40.8344ZM381.121 183.231V125.121C381.121 56.0184 325.102 0 256 0C186.898 0 130.88 56.0185 130.88 125.121V183.231H72.7691C62.9017 183.231 54.4464 190.288 52.6812 199.996L0.329497 487.93C-0.753506 493.887 0.862826 500.017 4.74202 504.665C8.62121 509.313 14.3632 512 20.4173 512H491.583C497.637 512 503.379 509.313 507.258 504.665C511.138 500.017 512.754 493.887 511.671 487.93L459.319 199.996C457.554 190.288 449.099 183.231 439.231 183.231H381.121ZM340.286 224.065V282.176C340.286 293.452 349.428 302.593 360.704 302.593C371.98 302.593 381.121 293.452 381.121 282.176V224.065H422.192L467.119 471.166H44.8815L89.8088 224.065H130.88V282.176C130.88 293.452 140.021 302.593 151.297 302.593C162.573 302.593 171.714 293.452 171.714 282.176V224.065H340.286Z"/>
</svg>
