<svg width="645" height="512" viewBox="0 0 645 512" xmlns="http://www.w3.org/2000/svg">
    <path fill-rule="evenodd" clip-rule="evenodd" d="M0 256C0 242.318 11.0918 231.226 24.7742 231.226H619.355C633.037 231.226 644.129 242.318 644.129 256C644.129 269.682 633.037 280.774 619.355 280.774H24.7742C11.0918 280.774 0 269.682 0 256Z"/>
    <path fill-rule="evenodd" clip-rule="evenodd" d="M0 24.7742C0 11.0918 11.0918 0 24.7742 0H619.355C633.037 0 644.129 11.0918 644.129 24.7742C644.129 38.4566 633.037 49.5484 619.355 49.5484H24.7742C11.0918 49.5484 0 38.4566 0 24.7742Z"/>
    <path fill-rule="evenodd" clip-rule="evenodd" d="M0 487.226C0 473.543 11.0918 462.452 24.7742 462.452H619.355C633.037 462.452 644.129 473.543 644.129 487.226C644.129 500.908 633.037 512 619.355 512H24.7742C11.0918 512 0 500.908 0 487.226Z"/>
</svg>
