<svg width="432" height="513" viewBox="0 0 432 513" xmlns="http://www.w3.org/2000/svg">
    <path fill-rule="evenodd" clip-rule="evenodd" d="M216.083 27.4479C165.975 27.4479 117.968 46.9936 82.61 81.7085C47.2606 116.415 27.4479 163.434 27.4479 212.408C27.4479 284.068 74.7128 352.412 124.725 404.243C149.439 429.856 174.202 450.797 192.802 465.339C202.092 472.602 209.816 478.247 215.192 482.059C215.497 482.275 215.794 482.485 216.083 482.689C216.372 482.485 216.669 482.275 216.974 482.059C222.35 478.247 230.074 472.602 239.364 465.339C257.964 450.797 282.727 429.856 307.441 404.243C357.453 352.412 404.718 284.068 404.718 212.408C404.718 163.434 384.905 116.415 349.556 81.7085C314.198 46.9936 266.191 27.4479 216.083 27.4479ZM216.083 499.036C208.704 510.309 208.696 510.304 208.696 510.304L208.643 510.27L208.51 510.182L208.028 509.861C207.612 509.585 207.011 509.181 206.237 508.654C204.688 507.601 202.444 506.054 199.605 504.041C193.928 500.016 185.863 494.12 176.205 486.569C156.91 471.484 131.145 449.706 105.332 422.955C54.2896 370.056 0.5 295.086 0.5 212.408C0.500001 156.126 23.2744 102.2 63.7306 62.4795C104.178 22.767 158.986 0.5 216.083 0.5C273.18 0.5 327.987 22.7671 368.435 62.4795C408.892 102.2 431.666 156.126 431.666 212.408C431.666 295.086 377.876 370.056 326.834 422.955C301.021 449.706 275.256 471.484 255.961 486.569C246.303 494.12 238.238 500.016 232.561 504.041C229.722 506.054 227.478 507.601 225.929 508.654C225.155 509.181 224.554 509.585 224.138 509.861L223.656 510.182L223.523 510.27L223.483 510.296C223.483 510.296 223.462 510.309 216.083 499.036ZM216.083 499.036L223.483 510.296C219.001 513.229 213.178 513.238 208.696 510.304L216.083 499.036ZM216.083 159.737C186.083 159.737 162.187 183.551 162.187 212.408C162.187 241.266 186.083 265.079 216.083 265.079C246.083 265.079 269.979 241.266 269.979 212.408C269.979 183.551 246.083 159.737 216.083 159.737ZM135.239 212.408C135.239 168.204 171.668 132.79 216.083 132.79C260.498 132.79 296.927 168.204 296.927 212.408C296.927 256.613 260.498 292.027 216.083 292.027C171.668 292.027 135.239 256.613 135.239 212.408Z"/>
</svg>
