<svg width="584" height="512" viewBox="0 0 584 512" xmlns="http://www.w3.org/2000/svg">
    <path fill-rule="evenodd" clip-rule="evenodd" d="M291.939 458.677C171.833 390.484 104.642 322.515 72.1097 263.269C38.8929 202.776 41.6353 151.457 60.3125 114.815C98.577 39.7453 207.45 15.7269 273.664 99.4713L291.938 122.584L310.214 99.4724C376.438 15.7251 485.318 39.7468 523.581 114.815C542.258 151.457 545 202.775 511.78 263.268C479.246 322.514 412.05 390.484 291.939 458.677ZM291.94 50.2572C201.864 -37.47 67.7033 -2.28868 18.7991 93.6547C-7.82461 145.887 -8.31919 213.604 31.2666 285.696C70.5335 357.207 149.008 432.999 280.669 505.771L291.939 512L303.209 505.771C434.875 433 513.353 357.208 552.623 285.696C592.211 213.604 591.718 145.887 565.095 93.6547C516.19 -2.29036 382.025 -37.4688 291.94 50.2572Z"/>
</svg>
