<svg width="513" height="513" viewBox="0 0 513 513" xmlns="http://www.w3.org/2000/svg">
    <path d="M477.056 384.1C477.055 384.112 477.053 384.125 477.052 384.137L494.71 386.267L477.068 384.009C477.064 384.039 477.06 384.069 477.056 384.1Z"/>
    <path fill-rule="evenodd" clip-rule="evenodd" d="M332.778 21.3033C323.292 18.752 313.534 24.3738 310.982 33.8599C308.431 43.3461 314.053 53.1044 323.539 55.6558C355.708 64.3078 385.039 81.2604 408.594 104.816C432.15 128.371 449.102 157.702 457.754 189.871C460.306 199.357 470.064 204.979 479.55 202.428C489.036 199.877 494.658 190.118 492.107 180.632C481.836 142.444 461.711 107.625 433.748 79.6617C405.786 51.6989 370.966 31.5742 332.778 21.3033ZM311.309 101.506C301.823 98.9544 292.064 104.575 289.512 114.061C286.96 123.547 292.581 133.306 302.067 135.858C320.161 140.726 336.658 150.261 349.907 163.51C363.156 176.759 372.691 193.256 377.559 211.35C380.111 220.836 389.87 226.457 399.356 223.905C408.842 221.353 414.463 211.594 411.911 202.108C405.424 177.996 392.716 156.012 375.061 138.356C357.405 120.701 335.421 107.993 311.309 101.506Z"/>
    <path fill-rule="evenodd" clip-rule="evenodd" d="M148.893 5.96176C141.675 1.7857 133.296 0.067488 125.017 1.06588L124.892 1.08153C90.555 5.47126 58.9956 22.2254 36.1218 48.2072C13.248 74.189 0.628186 107.619 0.625 142.235C0.625 240.512 39.6654 334.764 109.158 404.256C178.65 473.749 272.903 512.789 371.181 512.789C405.798 512.787 439.229 500.168 465.214 477.295C491.199 454.422 507.958 422.863 512.353 388.525L512.369 388.397C513.367 380.118 511.649 371.739 507.473 364.521C503.303 357.314 496.908 351.655 489.249 348.392L489.214 348.378L367.77 296.315L367.747 296.305C361.856 293.79 355.43 292.782 349.051 293.374C342.677 293.966 336.539 296.144 331.214 299.697L266.275 342.975L266.165 343.049C265.768 343.318 265.308 343.479 264.83 343.515C264.365 343.551 263.899 343.468 263.475 343.275C223.029 323.687 190.313 291.11 170.555 250.746C170.355 250.318 170.267 249.846 170.299 249.375C170.332 248.893 170.489 248.427 170.755 248.023L170.79 247.97L213.954 182.021C217.427 176.713 219.537 170.629 220.095 164.31C220.653 157.99 219.642 151.631 217.152 145.796L165.037 24.2206L165.024 24.1919C161.762 16.5297 156.101 10.1326 148.893 5.96176ZM62.8221 71.7135C79.9584 52.2488 103.594 39.6892 129.313 36.379C129.926 36.313 130.544 36.4436 131.078 36.7525C131.622 37.0675 132.049 37.5509 132.295 38.1297L184.433 159.757C184.622 160.204 184.702 160.697 184.659 161.181C184.616 161.666 184.454 162.134 184.188 162.542L141.061 228.435L141.041 228.465C137.401 233.994 135.254 240.37 134.807 246.975C134.36 253.591 135.635 260.211 138.508 266.188L138.56 266.295C161.828 313.881 200.394 352.281 248.08 375.344L248.21 375.406C254.235 378.26 260.9 379.494 267.547 378.985C274.169 378.477 280.544 376.259 286.049 372.546L350.954 329.29C351.364 329.016 351.848 328.841 352.339 328.795C352.828 328.75 353.32 328.827 353.772 329.018L475.251 381.096L475.305 381.119C475.884 381.365 476.367 381.792 476.682 382.336C476.991 382.87 477.122 383.487 477.056 384.1L477.068 384.009L494.71 386.267L477.052 384.137L477.056 384.1C473.741 409.82 461.178 433.456 441.71 450.593C422.22 467.749 397.144 477.214 371.178 477.216C282.336 477.215 197.133 441.923 134.312 379.102C71.4908 316.281 36.1982 231.079 36.1982 142.236C36.2006 116.273 45.6659 91.2009 62.8221 71.7135Z"/>
</svg>
