<svg width="624" height="513" viewBox="0 0 624 513" xmlns="http://www.w3.org/2000/svg">
    <path fill-rule="evenodd" clip-rule="evenodd" d="M346.719 9.06915C357.764 -2.02181 375.709 -2.05897 386.8 8.98617L615.422 236.663C620.763 241.982 623.765 249.209 623.765 256.747C623.764 264.284 620.762 271.511 615.42 276.829L386.798 504.469C375.706 515.513 357.762 515.474 346.717 504.382C335.673 493.29 335.712 475.346 346.804 464.301L526.792 285.087H28.5916C12.939 285.087 0.25 272.398 0.25 256.745C0.25 241.093 12.939 228.404 28.5916 228.404H526.8L346.802 49.1501C335.711 38.105 335.674 20.1601 346.719 9.06915Z"/>
</svg>
