<svg width="675" height="512" viewBox="0 0 675 512" xmlns="http://www.w3.org/2000/svg">
    <path fill-rule="evenodd" clip-rule="evenodd" d="M78.6835 123.838C131.724 62.9325 216.145 0 337.383 0C458.62 0 543.041 62.9325 596.082 123.838C622.608 154.297 641.688 184.652 654.148 207.377C660.394 218.768 665.019 228.319 668.119 235.114C669.67 238.514 670.842 241.23 671.647 243.149C672.049 244.109 672.36 244.87 672.581 245.418L672.844 246.079L672.926 246.287L672.954 246.36C672.959 246.372 672.974 246.411 648.134 256.025C672.974 265.642 672.969 265.653 672.965 265.665L672.925 265.766L672.844 265.973L672.58 266.634C672.359 267.182 672.048 267.943 671.646 268.903C670.841 270.822 669.669 273.537 668.118 276.936C665.018 283.73 660.393 293.28 654.147 304.668C641.686 327.388 622.606 357.737 596.08 388.19C543.038 449.083 458.618 512 337.383 512C216.148 512 131.727 449.083 78.6855 388.19C52.1594 357.737 33.0793 327.388 20.6184 304.668C14.3724 293.28 9.74715 283.73 6.64734 276.936C5.09644 273.537 3.92441 270.822 3.11966 268.903C2.7172 267.943 2.40632 267.182 2.18559 266.634L1.92182 265.973L1.84024 265.766L1.81196 265.693C1.80732 265.681 1.792 265.642 26.6314 256.025C1.79128 246.411 1.79558 246.4 1.80022 246.388L1.83951 246.287L1.92108 246.079L2.18482 245.418C2.40554 244.87 2.7164 244.109 3.11884 243.149C3.92356 241.23 5.09555 238.514 6.64641 235.114C9.74614 228.319 14.3713 218.768 20.6172 207.377C33.0779 184.652 52.1578 154.297 78.6835 123.838ZM26.6314 256.025L1.80022 246.388C-0.594354 252.575 -0.603037 259.455 1.792 265.642L26.6314 256.025ZM55.6638 256.024C58.2889 261.71 62.1553 269.622 67.3264 279.051C78.4493 299.332 95.4386 326.318 118.855 353.2C165.697 406.976 236.653 458.728 337.383 458.728C438.113 458.728 509.068 406.976 555.911 353.2C579.327 326.318 596.316 299.332 607.439 279.051C612.61 269.622 616.477 261.71 619.102 256.024C616.477 250.336 612.61 242.422 607.438 232.99C596.315 212.704 579.325 185.712 555.909 158.823C509.065 105.034 438.11 53.2717 337.383 53.2717C236.655 53.2717 165.7 105.034 118.857 158.823C95.4402 185.712 78.4507 212.704 67.3276 232.99C62.1558 242.422 58.2889 250.337 55.6638 256.024ZM648.134 256.025L672.965 265.665C675.36 259.478 675.369 252.598 672.974 246.411L648.134 256.025ZM240.072 158.712C265.88 132.903 300.884 118.404 337.383 118.404C373.881 118.404 408.885 132.903 434.694 158.712C460.502 184.52 475.001 219.524 475.001 256.022C475.001 292.521 460.502 327.525 434.694 353.333C408.885 379.142 373.881 393.641 337.383 393.641C300.884 393.641 265.88 379.142 240.072 353.333C214.263 327.525 199.764 292.521 199.764 256.022C199.764 219.524 214.263 184.52 240.072 158.712ZM337.383 171.676C315.013 171.676 293.559 180.562 277.741 196.38C261.922 212.198 253.036 233.652 253.036 256.022C253.036 278.393 261.922 299.847 277.741 315.665C293.559 331.483 315.013 340.369 337.383 340.369C359.753 340.369 381.207 331.483 397.025 315.665C412.843 299.847 421.73 278.393 421.73 256.022C421.73 233.652 412.843 212.198 397.025 196.38C381.207 180.562 359.753 171.676 337.383 171.676Z"/>
</svg>
