<svg width="512" height="242" viewBox="0 0 512 242" fill="none" xmlns="http://www.w3.org/2000/svg">
<path d="M187.703 241.989L512 143.847V203.301C512 224.668 494.679 241.989 473.312 241.989H187.703Z" fill="#FD6020"/>
<path fill-rule="evenodd" clip-rule="evenodd" d="M450.451 1.89211C468.292 1.89211 478.105 10.1453 478.105 25.7348C478.997 37.6561 470.968 47.7433 460.264 49.5774L484.349 83.5073H465.616L445.098 50.4944H443.314V83.5073H428.149V1.89211H450.451ZM443.293 39.4904H447.753C457.566 39.4904 462.026 34.9053 462.026 26.652C462.026 19.3158 457.566 14.7307 447.753 14.7307H443.293V39.4904ZM375.544 83.5073H418.364V69.7519H390.709V47.7433H417.471V33.988H390.709V15.6475H418.364V1.89211H375.544V83.5073ZM330.912 56.9136L310.394 1.89211H294.337L327.343 85.3414H335.372L368.378 1.89211H352.321L330.912 56.9136ZM149.857 43.1584C149.857 66.084 167.698 85.3415 190 85.3415C197.136 85.3415 203.381 83.5075 209.625 80.7564V62.4159C205.165 67.918 198.92 71.5861 191.784 71.5861C177.511 71.5861 165.914 60.5818 165.914 45.9095V44.0754C165.022 29.403 176.619 16.5647 190.892 15.6476C198.028 15.6476 205.165 19.3157 209.625 24.8179V6.4774C204.273 2.8093 197.136 1.89227 190.892 1.89227C167.698 0.0582244 149.857 19.3157 149.857 43.1584ZM122.182 33.0711C113.261 29.403 110.585 27.5689 110.585 22.9838C111.477 17.4817 115.937 12.8965 121.29 13.8136C125.75 13.8136 130.21 16.5646 133.779 20.2327L141.807 9.22845C135.563 3.7263 127.534 0.0581976 119.506 0.0581976C107.017 -0.858827 96.3118 9.22844 95.4197 22.0668V22.9838C95.4197 33.9881 99.8801 40.4073 114.153 44.9924C117.721 45.9094 121.29 47.7435 124.858 49.5775C127.534 51.4116 129.318 54.1627 129.318 57.8308C129.318 64.2499 123.966 69.7521 118.613 69.7521H117.721C110.585 69.7521 104.34 65.167 101.664 58.7478L91.8515 68.8351C97.2039 78.9223 107.909 84.4245 118.613 84.4245C132.887 85.3415 144.483 74.3372 145.375 59.6648V56.9137C144.483 45.9094 140.023 40.4073 122.182 33.0711ZM70.4495 83.5073H85.6146V1.89211H70.4495V83.5073ZM0 1.89202H26.762C48.1716 2.80904 65.1209 21.1495 64.2288 43.1581C64.2288 55.0795 58.8764 66.0838 49.9558 74.337C41.9271 80.7562 32.1144 84.4243 22.3017 83.5072H0V1.89202ZM19.5951 69.7526C26.7316 70.6696 34.7602 67.9186 40.1126 63.3334C45.465 57.8313 48.1412 50.4951 48.1412 42.2419C48.1412 34.9057 45.465 27.5695 40.1126 22.0673C34.7602 17.4822 26.7316 14.7311 19.5951 15.6481H15.1347V69.7526H19.5951Z" fill="white"/>
<path fill-rule="evenodd" clip-rule="evenodd" d="M255.074 0C232.772 0 214.039 18.3405 214.039 42.1831C214.039 65.1088 231.88 84.3663 255.074 85.2833C278.268 86.2003 296.109 66.9428 297.001 43.1002C296.109 19.2575 278.268 0 255.074 0Z" fill="#FD6020"/>
</svg>
