<svg width="416" height="512" viewBox="0 0 416 512" xmlns="http://www.w3.org/2000/svg">
    <path d="M214.954 0C74.6274 0 0 89.9241 0 187.977C0 233.451 25.4092 290.157 66.083 308.142C72.2593 310.926 75.6194 309.742 76.9955 304.014C78.2115 299.662 83.5558 278.701 86.1479 268.812C86.9479 265.644 86.5319 262.892 83.9718 259.916C70.4672 244.299 59.7467 215.85 59.7467 189.161C59.7467 120.773 114.117 54.3705 206.633 54.3705C286.637 54.3705 342.608 106.341 342.608 180.68C342.608 264.684 298.158 322.799 240.395 322.799C208.425 322.799 184.616 297.709 192.169 266.668C201.289 229.706 219.178 189.961 219.178 163.303C219.178 139.398 205.673 119.621 178.088 119.621C145.543 119.621 119.141 151.847 119.141 195.113C119.141 222.602 128.87 241.163 128.87 241.163C128.87 241.163 96.6764 371.217 90.6921 395.506C80.5797 436.628 92.0682 503.223 93.0602 508.951C93.6682 512.119 97.2204 513.111 99.2045 510.519C102.373 506.359 141.286 450.836 152.199 410.707C156.167 396.082 172.456 336.783 172.456 336.783C183.176 356.144 214.122 372.369 247.083 372.369C345.136 372.369 415.987 286.189 415.987 179.24C415.635 76.7075 327.887 0 214.954 0Z"/>
</svg>
