<svg width="513" height="220" viewBox="0 0 513 220" fill="none" xmlns="http://www.w3.org/2000/svg">
<path fill-rule="evenodd" clip-rule="evenodd" d="M94.1792 28.5072C88.1786 35.9063 78.5778 41.7422 68.977 40.9085C67.7769 30.9041 72.4773 20.2744 77.9778 13.709C83.9783 6.10152 94.4792 0.682475 102.98 0.265625C103.98 10.6869 100.08 20.8997 94.1792 28.5072ZM102.867 42.8882C94.4091 42.3809 86.6914 45.5388 80.4576 48.0895C76.446 49.7309 73.0489 51.1209 70.4645 51.1209C67.5642 51.1209 64.0269 49.6566 60.0552 48.0125C54.8511 45.8582 48.9014 43.3952 42.6621 43.5134C28.3609 43.7219 15.0598 52.1631 7.75914 65.6064C-7.24213 92.4932 3.85881 132.302 18.36 154.187C25.4606 165.025 33.9614 176.905 45.1623 176.488C50.0901 176.295 53.6348 174.727 57.3033 173.105C61.5267 171.238 65.9141 169.298 72.7647 169.298C79.3778 169.298 83.5733 171.187 87.6007 173.001C91.4302 174.725 95.1077 176.381 100.567 176.28C112.168 176.071 119.469 165.442 126.569 154.604C134.232 142.972 137.599 131.619 138.11 129.896L138.17 129.697C138.17 129.697 138.063 129.639 137.896 129.559C135.335 128.337 115.756 118.998 115.568 93.9522C115.38 72.9302 131.098 62.2792 133.572 60.6025C133.722 60.5005 133.824 60.4317 133.87 60.3958C123.869 44.9724 108.268 43.305 102.867 42.8882ZM183.2 175.135V12.6678H241.705C271.908 12.6678 293.01 34.344 293.01 66.0245C293.01 97.7051 271.508 119.59 240.905 119.59H207.403V175.135H183.2ZM207.348 33.9251H235.25C256.252 33.9251 268.253 45.5968 268.253 66.1267C268.253 86.6565 256.252 98.4325 235.15 98.4325H207.348V33.9251ZM372.915 155.645C366.515 168.359 352.414 176.384 337.212 176.384C314.71 176.384 299.009 162.419 299.009 141.368C299.009 120.526 314.21 108.542 342.313 106.77L372.515 104.894V95.9318C372.515 82.6969 364.215 75.5062 349.413 75.5062C337.212 75.5062 328.312 82.0716 326.511 92.076H304.71C305.41 71.0251 324.411 55.7059 350.113 55.7059C377.816 55.7059 395.817 70.8167 395.817 94.2644V175.133H373.415V155.645H372.915ZM343.683 157.106C330.782 157.106 322.581 150.645 322.581 140.745C322.581 130.532 330.482 124.592 345.583 123.654L372.486 121.883V131.053C372.486 146.268 360.085 157.106 343.683 157.106ZM470.114 181.49C460.413 209.94 449.312 219.319 425.71 219.319C423.91 219.319 417.909 219.111 416.509 218.694V199.206C418.009 199.415 421.709 199.623 423.61 199.623C434.31 199.623 440.311 194.933 444.011 182.741L446.211 175.55L405.208 57.269H430.51L459.013 153.249H459.513L488.015 57.269H512.617L470.114 181.49Z" fill="white"/>
</svg>
