<svg width="512" height="169" viewBox="0 0 512 169" fill="none" xmlns="http://www.w3.org/2000/svg">
<path fill-rule="evenodd" clip-rule="evenodd" d="M128.012 166.91H83.6995L50.4703 36.41C48.8931 30.407 45.5443 25.1 40.6182 22.5988C28.3247 16.3131 14.7781 11.3106 0 8.78757V3.76333H71.3844C81.2365 3.76333 88.6255 11.3106 89.857 20.0758L107.098 114.21L151.389 3.76333H194.471L128.012 166.91ZM219.086 166.91H177.236L211.697 3.76333H253.547L219.086 166.91ZM307.68 48.9591C308.911 40.1722 316.3 35.1479 324.921 35.1479C338.468 33.8864 353.224 36.4094 365.539 42.6734L372.928 7.54723C360.613 2.52299 347.067 0 334.773 0C294.155 0 264.599 22.5982 264.599 53.9616C264.599 77.8213 285.534 90.3493 300.312 97.8965C316.3 105.422 322.458 110.446 321.226 117.972C321.226 129.26 308.911 134.284 296.618 134.284C281.84 134.284 267.062 130.521 253.537 124.236L246.148 159.384C260.926 165.648 276.914 168.171 291.692 168.171C337.236 169.41 365.539 146.834 365.539 112.947C365.539 70.2741 307.68 67.7728 307.68 48.9591ZM512 166.91L478.771 3.76333H443.079C435.69 3.76333 428.3 8.78757 425.837 16.3131L364.305 166.91H407.386L415.985 143.072H468.919L473.845 166.91H512ZM449.249 47.6969L461.542 109.184H427.082L449.249 47.6969Z" fill="white"/>
</svg>
