<svg width="631" height="512" viewBox="0 0 631 512" xmlns="http://www.w3.org/2000/svg">
<path d="M630.154 60.6129C606.72 70.8923 581.75 77.7058 555.717 81.0142C582.498 65.024 602.939 39.8966 612.549 9.60984C587.579 24.4972 560.01 35.0129 530.629 40.8812C506.919 15.6357 473.127 0 436.263 0C364.741 0 307.161 58.0529 307.161 129.221C307.161 139.461 308.027 149.307 310.154 158.681C202.752 153.442 107.717 101.967 43.8745 23.552C32.7286 42.8898 26.1908 65.024 26.1908 88.8517C26.1908 133.593 49.2308 173.253 83.5741 196.214C62.8185 195.82 42.4566 189.794 25.2062 180.303C25.2062 180.697 25.2062 181.209 25.2062 181.721C25.2062 244.5 69.9865 296.645 128.709 308.657C118.193 311.532 106.732 312.911 94.8381 312.911C86.5674 312.911 78.2178 312.438 70.3803 310.705C87.1188 361.866 134.617 399.478 191.094 400.699C147.141 435.082 91.3329 455.798 30.9169 455.798C20.3225 455.798 10.1612 455.326 0 454.026C57.2258 490.929 125.046 512 198.183 512C435.909 512 565.878 315.077 565.878 144.384C565.878 138.673 565.681 133.159 565.406 127.685C591.045 109.489 612.588 86.7643 630.154 60.6129Z"/>
</svg>
