<svg width="512" height="512" viewBox="0 0 512 512" xmlns="http://www.w3.org/2000/svg">
    <path d="M510.601 150.53C509.401 123.325 505.002 104.622 498.7 88.416C492.198 71.2133 482.196 55.8119 469.092 43.0085C456.289 30.006 440.786 19.9024 423.783 13.5027C407.483 7.20065 388.877 2.80134 361.673 1.60188C334.265 0.300841 325.564 0 256.05 0C186.537 0 177.836 0.300841 150.53 1.5003C123.325 2.69975 104.622 7.10297 88.4197 13.4011C71.2132 19.9024 55.8118 29.9044 43.0085 43.0085C30.0059 55.8119 19.9063 71.3149 13.5027 88.3183C7.20064 104.622 2.80133 123.224 1.60188 150.428C0.30084 177.836 0 186.537 0 256.051C0 325.565 0.30084 334.266 1.5003 361.572C2.69975 388.776 7.10296 407.479 13.405 423.686C19.9063 440.888 30.0059 456.29 43.0085 469.093C55.8118 482.096 71.3148 492.199 88.3182 498.599C104.622 504.901 123.223 509.3 150.432 510.5C177.734 511.703 186.439 512 255.953 512C325.466 512 334.167 511.703 361.473 510.5C388.678 509.3 407.381 504.901 423.583 498.599C457.992 485.295 485.197 458.091 498.5 423.686C504.799 407.382 509.202 388.776 510.401 361.572C511.601 334.266 511.902 325.565 511.902 256.051C511.902 186.537 511.8 177.836 510.601 150.53ZM464.494 359.571C463.392 384.576 459.192 398.079 455.691 407.081C447.088 429.386 429.385 447.089 407.08 455.692C398.078 459.193 384.478 463.393 359.571 464.491C332.565 465.694 324.466 465.991 256.152 465.991C187.838 465.991 179.637 465.694 152.729 464.491C127.724 463.393 114.222 459.193 105.22 455.692C94.1201 451.59 84.0165 445.088 75.8157 436.587C67.314 428.284 60.8127 418.282 56.7104 407.182C53.2097 398.181 49.0096 384.576 47.9118 359.673C46.7084 332.668 46.4115 324.564 46.4115 256.25C46.4115 187.936 46.7084 179.735 47.9118 152.831C49.0096 127.826 53.2097 114.323 56.7104 105.322C60.8127 94.2179 67.314 84.1182 75.9173 75.9135C84.2158 67.4118 94.2178 60.9105 105.322 56.812C114.323 53.3114 127.928 49.1113 152.831 48.0095C179.836 46.8101 187.939 46.5092 256.25 46.5092C324.665 46.5092 332.765 46.8101 359.672 48.0095C384.677 49.1113 398.18 53.3114 407.182 56.812C418.282 60.9105 428.385 67.4118 436.586 75.9135C445.088 84.2159 451.589 94.2179 455.691 105.322C459.192 114.323 463.392 127.924 464.494 152.831C465.693 179.836 465.994 187.936 465.994 256.25C465.994 324.564 465.693 332.566 464.494 359.571Z"/>
    <path d="M256.05 124.524C183.438 124.524 124.524 183.434 124.524 256.05C124.524 328.666 183.438 387.576 256.05 387.576C328.666 387.576 387.576 328.666 387.576 256.05C387.576 183.434 328.666 124.524 256.05 124.524ZM256.05 341.368C208.943 341.368 170.733 303.161 170.733 256.05C170.733 208.939 208.943 170.732 256.05 170.732C303.161 170.732 341.368 208.939 341.368 256.05C341.368 303.161 303.161 341.368 256.05 341.368Z"/>
    <path d="M423.486 119.324C423.486 136.281 409.737 150.03 392.777 150.03C375.82 150.03 362.071 136.281 362.071 119.324C362.071 102.364 375.82 88.6187 392.777 88.6187C409.737 88.6187 423.486 102.364 423.486 119.324Z"/>
</svg>
