<svg width="512" height="234" viewBox="0 0 512 234" fill="none" xmlns="http://www.w3.org/2000/svg">
<path fill-rule="evenodd" clip-rule="evenodd" d="M45.5085 8.68215C40.9032 8.68215 36.4865 10.5116 33.2301 13.768C29.9736 17.0245 28.1442 21.4411 28.1442 26.0464V39.0697H62.8728V26.0464C62.8728 21.4411 61.0433 17.0245 57.7869 13.768C54.5304 10.5116 50.1138 8.68215 45.5085 8.68215ZM71.5549 39.0697V26.0464C71.5549 19.1385 68.8107 12.5135 63.9261 7.62883C59.0414 2.74417 52.4164 0 45.5085 0C38.6005 0 31.9755 2.74417 27.0908 7.62883C22.2062 12.5135 19.462 19.1385 19.462 26.0464V39.0697H15.0963C7.90376 39.0697 2.07306 44.9004 2.07306 52.0929V82.4804C2.07306 89.6729 7.90376 95.5036 15.0963 95.5036H75.8713C83.0638 95.5036 88.8945 89.6729 88.8945 82.4804V52.0929C88.8945 44.9004 83.0638 39.0697 75.8713 39.0697H71.5549ZM15.0963 47.7518C12.6988 47.7518 10.7552 49.6954 10.7552 52.0929V82.4804C10.7552 84.8779 12.6988 86.8215 15.0963 86.8215H75.8713C78.2688 86.8215 80.2124 84.8779 80.2124 82.4804V52.0929C80.2124 49.6954 78.2688 47.7518 75.8713 47.7518H15.0963Z" fill="white"/>
<path d="M147.592 81.6805C142.799 81.6805 138.493 80.847 134.673 79.18C130.922 77.4436 127.97 75.082 125.817 72.0954C123.664 69.0393 122.552 65.5317 122.483 61.5726H132.589C132.936 64.976 134.325 67.8585 136.756 70.22C139.257 72.5121 142.868 73.6582 147.592 73.6582C152.106 73.6582 155.649 72.5468 158.219 70.3242C160.858 68.0321 162.178 65.1149 162.178 61.5726C162.178 58.7943 161.414 56.537 159.886 54.8005C158.357 53.0641 156.447 51.7444 154.155 50.8415C151.863 49.9385 148.772 48.9661 144.883 47.9243C140.09 46.674 136.235 45.4238 133.318 44.1736C130.47 42.9234 128.005 40.9786 125.921 38.3392C123.907 35.6304 122.9 32.0186 122.9 27.5039C122.9 23.5448 123.907 20.0372 125.921 16.9811C127.935 13.925 130.748 11.5634 134.36 9.89646C138.041 8.22949 142.243 7.396 146.966 7.396C153.773 7.396 159.33 9.09771 163.636 12.5011C168.012 15.9045 170.478 20.4192 171.033 26.0453H160.615C160.268 23.267 158.809 20.836 156.239 18.7523C153.669 16.5991 150.266 15.5225 146.029 15.5225C142.07 15.5225 138.84 16.5644 136.34 18.6481C133.839 20.6623 132.589 23.5101 132.589 27.1913C132.589 29.8307 133.318 31.9838 134.777 33.6508C136.305 35.3178 138.145 36.6028 140.299 37.5057C142.521 38.3392 145.612 39.3116 149.571 40.4229C154.364 41.7426 158.219 43.0623 161.136 44.382C164.053 45.6322 166.553 47.6117 168.637 50.3205C170.721 52.9599 171.763 56.5717 171.763 61.1559C171.763 64.6982 170.825 68.0321 168.95 71.1577C167.074 74.2833 164.296 76.8185 160.615 78.7633C156.934 80.7081 152.593 81.6805 147.592 81.6805Z" fill="white"/>
<path d="M237.808 50.2164C237.808 52.0222 237.703 53.9323 237.495 55.9466H191.862C192.209 61.5726 194.119 65.9831 197.592 69.1782C201.134 72.3037 205.406 73.8665 210.407 73.8665C214.505 73.8665 217.908 72.9289 220.617 71.0535C223.395 69.1087 225.34 66.5388 226.451 63.3438H236.661C235.133 68.8309 232.077 73.3109 227.493 76.7837C222.909 80.1871 217.213 81.8888 210.407 81.8888C204.989 81.8888 200.127 80.6733 195.821 78.2423C191.584 75.8113 188.25 72.3732 185.819 67.9279C183.388 63.4132 182.172 58.2039 182.172 52.3001C182.172 46.3962 183.353 41.2217 185.715 36.7764C188.076 32.3311 191.375 28.9277 195.612 26.5662C199.919 24.1352 204.85 22.9197 210.407 22.9197C215.824 22.9197 220.617 24.1005 224.784 26.462C228.952 28.8235 232.147 32.088 234.369 36.2555C236.661 40.3534 237.808 45.0071 237.808 50.2164ZM228.014 48.2368C228.014 44.6251 227.215 41.5342 225.618 38.9643C224.02 36.3249 221.832 34.3454 219.054 33.0257C216.345 31.6366 213.324 30.942 209.99 30.942C205.197 30.942 201.099 32.47 197.696 35.5262C194.362 38.5823 192.452 42.8192 191.966 48.2368H228.014Z" fill="white"/>
<path d="M246.78 52.3001C246.78 46.3962 247.96 41.2564 250.322 36.8806C252.684 32.4353 255.948 28.9972 260.115 26.5662C264.352 24.1352 269.18 22.9197 274.597 22.9197C281.612 22.9197 287.377 24.6214 291.892 28.0248C296.476 31.4282 299.498 36.1513 300.956 42.1941H290.746C289.774 38.7212 287.864 35.9776 285.016 33.9634C282.238 31.9491 278.765 30.942 274.597 30.942C269.18 30.942 264.804 32.8173 261.47 36.568C258.136 40.2493 256.469 45.4933 256.469 52.3001C256.469 59.1763 258.136 64.4898 261.47 68.2405C264.804 71.9912 269.18 73.8665 274.597 73.8665C278.765 73.8665 282.238 72.8941 285.016 70.9493C287.794 69.0045 289.704 66.2262 290.746 62.6145H300.956C299.428 68.4489 296.372 73.1372 291.788 76.6795C287.204 80.1524 281.474 81.8888 274.597 81.8888C269.18 81.8888 264.352 80.6733 260.115 78.2423C255.948 75.8113 252.684 72.3732 250.322 67.9279C247.96 63.4827 246.78 58.2734 246.78 52.3001Z" fill="white"/>
<path d="M364.241 23.8574V80.9512H354.76V72.5121C352.954 75.4293 350.419 77.7214 347.155 79.3884C343.96 80.9859 340.417 81.7847 336.528 81.7847C332.082 81.7847 328.089 80.8817 324.546 79.0758C321.004 77.2005 318.191 74.4222 316.107 70.741C314.093 67.0597 313.086 62.5797 313.086 57.301V23.8574H322.463V56.0508C322.463 61.6768 323.886 66.0179 326.734 69.074C329.582 72.0606 333.472 73.554 338.403 73.554C343.473 73.554 347.467 71.9912 350.384 68.8656C353.302 65.74 354.76 61.1906 354.76 55.2173V23.8574H364.241Z" fill="white"/>
<path d="M389.73 33.1299C391.397 29.8654 393.758 27.3302 396.815 25.5243C399.94 23.7184 403.726 22.8155 408.171 22.8155V32.609H405.67C395.043 32.609 389.73 38.3739 389.73 49.9038V80.9512H380.249V23.8574H389.73V33.1299Z" fill="white"/>
<path d="M471.208 50.2164C471.208 52.0222 471.104 53.9323 470.896 55.9466H425.262C425.609 61.5726 427.52 65.9831 430.992 69.1782C434.535 72.3037 438.806 73.8665 443.807 73.8665C447.905 73.8665 451.309 72.9289 454.017 71.0535C456.796 69.1087 458.741 66.5388 459.852 63.3438H470.062C468.534 68.8309 465.478 73.3109 460.894 76.7837C456.31 80.1871 450.614 81.8888 443.807 81.8888C438.39 81.8888 433.528 80.6733 429.221 78.2423C424.984 75.8113 421.65 72.3732 419.219 67.9279C416.788 63.4132 415.573 58.2039 415.573 52.3001C415.573 46.3962 416.754 41.2217 419.115 36.7764C421.477 32.3311 424.776 28.9277 429.013 26.5662C433.319 24.1352 438.251 22.9197 443.807 22.9197C449.225 22.9197 454.017 24.1005 458.185 26.462C462.352 28.8235 465.547 32.088 467.77 36.2555C470.062 40.3534 471.208 45.0071 471.208 50.2164ZM461.415 48.2368C461.415 44.6251 460.616 41.5342 459.018 38.9643C457.421 36.3249 455.233 34.3454 452.455 33.0257C449.746 31.6366 446.724 30.942 443.39 30.942C438.598 30.942 434.5 32.47 431.097 35.5262C427.763 38.5823 425.853 42.8192 425.366 48.2368H461.415Z" fill="white"/>
<path d="M57.8515 149.297C57.8515 153.54 56.8286 157.518 54.7828 161.231C52.8127 164.944 49.6682 167.937 45.3492 170.21C41.106 172.483 35.7263 173.62 29.2099 173.62H15.912V204.08H0V124.747H29.2099C35.3474 124.747 40.5756 125.808 44.8946 127.929C49.2136 130.051 52.4339 132.968 54.5555 136.681C56.7528 140.394 57.8515 144.599 57.8515 149.297ZM28.528 160.776C32.9227 160.776 36.1809 159.791 38.3025 157.821C40.4241 155.775 41.4849 152.934 41.4849 149.297C41.4849 141.568 37.1659 137.704 28.528 137.704H15.912V160.776H28.528Z" fill="white"/>
<path d="M65.0572 172.369C65.0572 166.005 66.3074 160.36 68.8079 155.435C71.3841 150.509 74.8317 146.721 79.1507 144.069C83.5455 141.417 88.4327 140.091 93.8125 140.091C98.5103 140.091 102.602 141.038 106.087 142.932C109.649 144.827 112.49 147.213 114.612 150.093V141.114H130.637V204.08H114.612V194.874C112.566 197.829 109.725 200.291 106.087 202.261C102.526 204.156 98.3967 205.103 93.6988 205.103C88.3948 205.103 83.5455 203.739 79.1507 201.011C74.8317 198.283 71.3841 194.457 68.8079 189.532C66.3074 184.531 65.0572 178.81 65.0572 172.369ZM114.612 172.597C114.612 168.732 113.854 165.436 112.339 162.709C110.823 159.905 108.777 157.783 106.201 156.344C103.625 154.828 100.859 154.071 97.9041 154.071C94.9491 154.071 92.2213 154.79 89.7208 156.23C87.2204 157.67 85.1745 159.791 83.5833 162.595C82.0679 165.323 81.3102 168.581 81.3102 172.369C81.3102 176.158 82.0679 179.492 83.5833 182.371C85.1745 185.175 87.2204 187.334 89.7208 188.85C92.2971 190.365 95.0248 191.123 97.9041 191.123C100.859 191.123 103.625 190.403 106.201 188.963C108.777 187.448 110.823 185.326 112.339 182.599C113.854 179.795 114.612 176.461 114.612 172.597Z" fill="white"/>
<path d="M206.417 141.114L167.432 233.858H150.497L164.136 202.489L138.904 141.114H156.748L173.001 185.099L189.482 141.114H206.417Z" fill="white"/>
<path d="M293.19 140.204C300.919 140.204 307.132 142.591 311.83 147.365C316.604 152.063 318.991 158.655 318.991 167.141V204.08H303.079V169.301C303.079 164.376 301.828 160.625 299.328 158.049C296.827 155.397 293.418 154.071 289.099 154.071C284.78 154.071 281.332 155.397 278.756 158.049C276.255 160.625 275.005 164.376 275.005 169.301V204.08H259.093V169.301C259.093 164.376 257.843 160.625 255.342 158.049C252.842 155.397 249.432 154.071 245.113 154.071C240.719 154.071 237.233 155.397 234.657 158.049C232.156 160.625 230.906 164.376 230.906 169.301V204.08H214.994V141.114H230.906V148.729C232.952 146.077 235.566 143.993 238.749 142.478C242.007 140.962 245.568 140.204 249.432 140.204C254.357 140.204 258.752 141.265 262.617 143.387C266.481 145.433 269.474 148.388 271.595 152.252C273.641 148.615 276.596 145.698 280.461 143.501C284.401 141.303 288.644 140.204 293.19 140.204Z" fill="white"/>
<path d="M392.624 171.233C392.624 173.506 392.472 175.552 392.169 177.37H346.138C346.517 181.917 348.108 185.478 350.911 188.054C353.715 190.63 357.162 191.918 361.254 191.918C367.164 191.918 371.37 189.38 373.87 184.303H391.032C389.214 190.365 385.728 195.366 380.576 199.306C375.423 203.171 369.096 205.103 361.595 205.103C355.533 205.103 350.078 203.777 345.228 201.125C340.455 198.397 336.704 194.57 333.976 189.645C331.324 184.72 329.998 179.037 329.998 172.597C329.998 166.08 331.324 160.36 333.976 155.435C336.628 150.509 340.341 146.721 345.115 144.069C349.888 141.417 355.382 140.091 361.595 140.091C367.581 140.091 372.923 141.379 377.621 143.955C382.394 146.531 386.069 150.206 388.646 154.98C391.298 159.678 392.624 165.095 392.624 171.233ZM376.143 166.687C376.067 162.595 374.59 159.337 371.711 156.912C368.831 154.412 365.308 153.161 361.14 153.161C357.2 153.161 353.866 154.374 351.139 156.798C348.487 159.147 346.858 162.443 346.251 166.687H376.143Z" fill="white"/>
<path d="M439.131 140.204C446.632 140.204 452.694 142.591 457.316 147.365C461.938 152.063 464.249 158.655 464.249 167.141V204.08H448.337V169.301C448.337 164.3 447.087 160.473 444.586 157.821C442.086 155.094 438.676 153.73 434.357 153.73C429.962 153.73 426.477 155.094 423.901 157.821C421.4 160.473 420.15 164.3 420.15 169.301V204.08H404.238V141.114H420.15V148.956C422.271 146.228 424.961 144.107 428.22 142.591C431.554 141 435.191 140.204 439.131 140.204Z" fill="white"/>
<path d="M497.907 154.184V184.644C497.907 186.766 498.399 188.319 499.384 189.304C500.445 190.214 502.188 190.668 504.612 190.668H512V204.08H501.998C488.587 204.08 481.881 197.563 481.881 184.531V154.184H474.379V141.114H481.881V125.543H497.907V141.114H512V154.184H497.907Z" fill="white"/>
</svg>
