<svg width="564" height="513" viewBox="0 0 564 513" xmlns="http://www.w3.org/2000/svg">
    <path d="M550.964 51.1052C482.74 51.1052 386.356 56.8136 337.101 106.043C315.776 127.368 305.127 162.132 307.891 201.48C308.25 206.677 311.706 211.105 316.672 212.744C321.612 214.357 327.04 212.846 330.419 208.879C357.812 176.648 391.859 150.818 431.693 132.104C435.072 130.491 439.066 130.363 442.701 131.643C445.901 132.795 448.409 134.971 449.715 137.762C452.428 143.497 451.558 151.049 442.547 155.298C442.035 155.553 441.574 155.887 441.063 156.117C440.884 156.194 440.679 156.169 440.525 156.246C342.375 202.377 294.119 282.864 272.205 365.628C256.23 262 222.49 200.994 190.618 163.542C167.553 133.641 144.87 117.794 131.764 108.835C129.331 107.171 121.985 102.153 118.938 99.1065C113.946 94.1145 113.946 85.9989 118.938 81.0069C123.93 76.0401 132.071 76.0401 137.626 81.5697C138.983 82.7733 141.159 84.3093 143.923 86.1525L146.202 87.6885C164.736 100.386 199.246 123.963 229.863 174.728C232.602 179.259 237.901 181.692 243.047 180.719C248.269 179.797 252.365 175.778 253.39 170.581C260.071 136.457 257.076 85.8189 226.638 55.3808C177.384 6.17716 81.0001 0.46875 12.8016 0.46875C5.73481 0.46755 0 6.20236 0 13.268C0 81.4917 5.70841 177.876 54.9373 227.131C75.4681 247.662 107.136 256.878 138.598 256.878C164.274 256.878 189.439 250.452 208.716 239.316C235.007 293.792 256 375.175 256 499.668C256 506.734 261.735 512.469 268.8 512.469C275.866 512.469 281.601 506.734 281.601 499.668C281.601 430.216 293.505 346.861 337.767 278.254C355.508 295.585 386.049 306.568 419.891 307.591C421.581 307.643 423.245 307.668 424.908 307.668C459.29 307.668 489.676 296.891 508.799 277.741C558.053 228.487 563.737 132.103 563.737 63.8781C563.764 56.8136 558.055 51.1052 550.964 51.1052Z"/>
</svg>
