<svg width="512" height="307" viewBox="0 0 512 307" fill="none" xmlns="http://www.w3.org/2000/svg">
<path fill-rule="evenodd" clip-rule="evenodd" d="M255.982 270.221C228.87 293.068 193.704 306.86 155.278 306.86C69.5202 306.86 0 238.167 0 153.43C0 68.6929 69.5202 0 155.278 0C193.704 0 228.87 13.7916 255.982 36.6386C283.095 13.7916 318.261 0 356.686 0C442.444 0 511.964 68.6929 511.964 153.43C511.964 238.167 442.444 306.86 356.686 306.86C318.261 306.86 283.095 293.068 255.982 270.221Z" fill="#ED0006"/>
<path fill-rule="evenodd" clip-rule="evenodd" d="M255.984 270.221C289.381 242.079 310.558 200.198 310.558 153.43C310.558 106.662 289.381 64.7805 255.984 36.6386C283.097 13.7916 318.263 0 356.689 0C442.446 0 511.967 68.6929 511.967 153.43C511.967 238.167 442.446 306.86 356.689 306.86C318.263 306.86 283.097 293.068 255.984 270.221Z" fill="#F9A000"/>
<path fill-rule="evenodd" clip-rule="evenodd" d="M255.987 270.22C289.384 242.078 310.561 200.197 310.561 153.428C310.561 106.66 289.384 64.7787 255.987 36.6367C222.591 64.7787 201.414 106.66 201.414 153.428C201.414 200.197 222.591 242.078 255.987 270.22Z" fill="#FF5E00"/>
</svg>
